<?xml version="1.0" encoding="UTF-8"?>
<svg version="1.1" xmlns="http://www.w3.org/2000/svg" width="1024" height="1024">
<path d="M0 0 C1.48113281 0.81597656 1.48113281 0.81597656 2.9921875 1.6484375 C26.0762331 15.3650443 41.90323682 38.76842001 49.1875 64.25 C56.8880019 94.83377475 52.78567602 125.61006932 37 153 C20.22135825 180.15783948 -4.91877349 198.62917626 -35.79174805 206.48022461 C-44.65368886 208.56613638 -53.08119554 209.357834 -62.1875 209.3125 C-63.37641846 209.30686035 -64.56533691 209.3012207 -65.7902832 209.29541016 C-95.14515903 208.8915632 -120.54713381 196.68878232 -141.6875 176.75 C-162.59656485 154.79354229 -173.46988505 125.8384142 -173.30053711 95.61499023 C-172.50385374 63.92271125 -159.5023002 35.44694855 -136.625 13.625 C-97.76551169 -19.84357664 -44.57393653 -24.67617047 0 0 Z " fill="#00C7FE" transform="translate(573,418)"/>
<path d="M0 0 C1.08535034 0.22381348 1.08535034 0.22381348 2.19262695 0.45214844 C7.69454813 1.72920526 11.76276415 4.03691321 15.875 7.875 C17.56127926 11.24755852 17.53204378 14.47357622 17 18.125 C15.21191667 22.26582455 12.6687241 24.55689313 9 27.125 C3.28406496 29.03031168 -2.30008548 28.17803482 -8.08544922 27.05712891 C-30.59133587 22.80937679 -55.61269853 23.69117967 -78 28.125 C-79.27858887 28.37443359 -79.27858887 28.37443359 -80.58300781 28.62890625 C-108.87341288 34.33986653 -137.5126198 45.12683174 -161 62.125 C-161.94746094 62.8051416 -161.94746094 62.8051416 -162.9140625 63.49902344 C-167.68464435 66.94572278 -172.36690437 70.49590246 -177 74.125 C-177.54978516 74.55474121 -178.09957031 74.98448242 -178.66601562 75.42724609 C-212.40618304 102.11895387 -235.8163576 136.78903089 -250 177.125 C-250.25410645 177.8370459 -250.50821289 178.5490918 -250.77001953 179.28271484 C-260.02460258 205.76021199 -261.16180175 235.42761667 -258 263.125 C-257.41322375 270.25014017 -257.27444149 275.64744591 -261.63671875 281.5703125 C-265.53876366 286.02020899 -268.70914619 286.87508867 -274.4375 287.5 C-278 287.125 -278 287.125 -280.75 285.125 C-294.80528979 266.38461361 -290.70692283 227.72619715 -287.74609375 205.83984375 C-280.52934084 158.54126545 -259.45748227 114.59123072 -227.0546875 79.36328125 C-225.11897397 77.25460473 -223.24180024 75.10713672 -221.375 72.9375 C-195.93070425 43.80816832 -160.85628671 23.53101775 -125 10.125 C-124.24992676 9.84382324 -123.49985352 9.56264648 -122.72705078 9.27294922 C-105.46956467 2.91047661 -87.29586831 -1.05177326 -69 -2.875 C-67.93910156 -2.98585938 -66.87820313 -3.09671875 -65.78515625 -3.2109375 C-43.98540951 -5.12910784 -21.4423155 -4.53660003 0 0 Z " fill="#09A3F3" transform="translate(560,281.875)"/>
<path d="M0 0 C4.50321663 1.59488922 7.6708045 3.74871524 10.0480957 7.88696289 C12.91827461 14.25412426 14.5882745 20.68627392 16.0625 27.5 C16.44656006 29.27129272 16.44656006 29.27129272 16.83837891 31.07836914 C30.12673075 94.68229127 17.67184997 162.68289483 -17.9375 217.3125 C-28.59401824 232.74970923 -40.55704687 246.9964521 -54 260.0625 C-55.23556641 261.3 -55.23556641 261.3 -56.49609375 262.5625 C-70.30714473 276.35200488 -92.21386296 297.92608256 -112.4375 300.5 C-117.08000736 299.92986752 -118.79377944 298.41445786 -122 295.0625 C-124.85564071 290.87422696 -125.36220743 287.33326651 -125.49609375 282.40625 C-124.21542477 276.35584539 -119.8099276 272.7885647 -115.0625 269.25 C-114.49184814 268.82114502 -113.92119629 268.39229004 -113.33325195 267.95043945 C-109.5221959 265.11032644 -105.62104895 262.41814293 -101.6875 259.75 C-87.82058574 250.22171114 -75.57894335 239.24549648 -64 227.0625 C-62.95779297 225.97388672 -62.95779297 225.97388672 -61.89453125 224.86328125 C-33.1281738 193.3637782 -15.07472234 151.73261459 -8 110.0625 C-7.773125 108.78375 -7.54625 107.505 -7.3125 106.1875 C-3.31439049 79.0892022 -5.77055434 50.96637109 -11.42578125 24.3359375 C-12.47570778 18.35064206 -13.4453403 11.94480182 -10.65234375 6.375 C-7.84046547 2.4396999 -4.92690842 0.10264393 0 0 Z " fill="#0CACF5" transform="translate(727,425.9375)"/>
<path d="M0 0 C3.0796555 1.96117365 5.66589063 4.1888928 8 7 C8 7.66 8 8.32 8 9 C8.66 9 9.32 9 10 9 C11.69729635 11.02884707 13.29297901 13.0713224 14.875 15.1875 C20.50641436 22.53871013 26.59871411 29.31692603 33 36 C33.70898438 36.75023437 34.41796875 37.50046875 35.1484375 38.2734375 C63.28331505 67.32700493 102.56805255 85.82676366 142 93 C142.88187988 93.16371094 143.76375977 93.32742188 144.67236328 93.49609375 C160.38750119 96.27255907 176.01260993 96.23767061 191.91186523 95.88989258 C192.7392218 95.87702713 193.56657837 95.86416168 194.41900635 95.85090637 C195.97969716 95.8259853 197.54025773 95.78862787 199.10028076 95.73661804 C205.01653201 95.654549 208.02959002 97.13905724 212.25 101.125 C214.62920681 105.0336969 215.19295735 108.44942258 215 113 C213.31908483 118.24050025 210.76461495 120.38413297 206 123 C196.0969628 127.18128237 184.50615621 126.24074036 173.9375 126.25 C173.14064789 126.25100708 172.34379578 126.25201416 171.52279663 126.25305176 C157.83908139 126.24139539 144.49021325 125.44574985 131 123 C130.25411621 122.86609863 129.50823242 122.73219727 128.73974609 122.59423828 C110.2039275 119.09571384 91.74139087 112.64645692 75 104 C74.31357422 103.65324219 73.62714844 103.30648437 72.91992188 102.94921875 C47.17518305 89.92730439 22.59840053 71.75484367 4.48828125 49.109375 C2.69478131 46.86820396 0.88367547 44.65462682 -0.95703125 42.453125 C-18.35840595 21.4725883 -18.35840595 21.4725883 -19 9 C-17.25139919 5.29296629 -15.66278577 3.46240868 -12.3125 1.125 C-8.02077661 -0.33256643 -4.46319919 -1.08016922 0 0 Z " fill="#037ACB" transform="translate(328,631)"/>
<path d="M0 0 C9.77162004 8.22139868 16.23340785 18.51540986 17.44140625 31.39453125 C17.93677538 43.58700367 14.32177045 54.53845918 6.1875 63.6875 C-1.95204486 71.68856489 -11.60321504 75.13556916 -22.90234375 75.71875 C-33.96916456 75.59991166 -43.85506092 71.29777647 -51.93359375 63.7578125 C-60.34196958 54.49286615 -66.26263311 41.73205458 -66.0234375 29.0546875 C-65.04159993 18.03628812 -61.10976101 9.54593006 -53.125 1.9375 C-37.87552767 -10.60548201 -15.99783344 -11.88486792 0 0 Z " fill="#0BB3FC" transform="translate(709.8125,267.3125)"/>
<path d="M0 0 C5.68399423 4.46599547 7.88778603 12.08074576 9 19 C10.08503512 31.09547349 7.34798212 42.01040204 0.015625 51.765625 C-3.25261721 55.38856016 -6.98499524 58.25049561 -11 61 C-11.99 60.34 -12.98 59.68 -14 59 C-13.01 59 -12.02 59 -11 59 C-11 58.34 -11 57.68 -11 57 C-10.01 57 -9.02 57 -8 57 C-8 56.34 -8 55.68 -8 55 C-6.1875 52.875 -6.1875 52.875 -4 51 C-3.01 51 -2.02 51 -1 51 C-0.855625 50.05125 -0.71125 49.1025 -0.5625 48.125 C0 45 0 45 1 43 C1.144375 42.175 1.28875 41.35 1.4375 40.5 C2 38 2 38 4 36 C3.67 36 3.34 36 3 36 C2.80508548 34.54263913 2.61930642 33.08405407 2.4375 31.625 C2.33308594 30.81289063 2.22867188 30.00078125 2.12109375 29.1640625 C2 27 2 27 3 25 C2.91043781 22.93429135 2.75439499 20.87122531 2.5625 18.8125 C2.24262265 15.18589049 1.93338278 11.63949174 2.0625 8 C1.99714386 4.86290551 1.3600717 2.80514788 0 0 Z " fill="#0CC1FC" transform="translate(718,277)"/>
<path d="M0 0 C12.85883233 11.10317309 13.4746044 43.82654465 14.78173828 59.51904297 C15.55279693 71.81630714 16.24703623 84.83718463 14 97 C13.67 97 13.34 97 13 97 C13.00523682 96.17387207 13.01047363 95.34774414 13.01586914 94.49658203 C13.03307591 91.38411728 13.04552946 88.27167706 13.05493164 85.15917969 C13.06233777 83.16860325 13.07505474 81.17804883 13.08789062 79.1875 C13.10589603 72.05736081 12.92522041 65.07423314 12 58 C11.67 59.98 11.34 61.96 11 64 C9 62 9 62 8.8046875 59.7578125 C8.83949219 58.45457031 8.83949219 58.45457031 8.875 57.125 C8.89304687 56.26132812 8.91109375 55.39765625 8.9296875 54.5078125 C8.95289063 53.68023437 8.97609375 52.85265625 9 52 C9 50.68 9 49.36 9 48 C9.05800781 47.12730469 9.11601563 46.25460937 9.17578125 45.35546875 C9.52291346 37.3119196 8.44040378 30.03521995 6.75 22.1875 C6.54544189 21.22158936 6.34088379 20.25567871 6.13012695 19.26049805 C4.8832962 13.77208577 3.24495268 8.83423194 0.77832031 3.77075195 C0 2 0 2 0 0 Z " fill="#2BCAF0" transform="translate(734,431)"/>
<path d="M0 0 C0 0.66 0 1.32 0 2 C-0.66 2 -1.32 2 -2 2 C-2.2475 2.5775 -2.495 3.155 -2.75 3.75 C-4 6 -4 6 -6.1875 7.8125 C-8.37343799 9.94510297 -8.37343799 9.94510297 -7.8125 13.25 C-7.544375 14.4875 -7.27625 15.725 -7 17 C-6.79819944 18.47728359 -6.61049398 19.95656673 -6.4375 21.4375 C-6.293125 22.613125 -6.14875 23.78875 -6 25 C-1.38 24.67 3.24 24.34 8 24 C8.33 24.66 8.66 25.32 9 26 C7.68 26.33 6.36 26.66 5 27 C5 27.66 5 28.32 5 29 C1.85088521 30.57455739 -0.52008816 30.34799118 -4 30 C-8.53690024 27.03356523 -11.22332856 24.13260639 -13 19 C-13.71020379 14.12502089 -13.51034767 10.93563739 -11.125 6.5625 C-8.0079177 2.80366546 -5.16015171 0 0 0 Z " fill="#149DE7" transform="translate(615,696)"/>
<path d="M0 0 C0.33 0 0.66 0 1 0 C1.31903616 7.55886328 0.41898685 14.48455751 -1.125 21.875 C-1.45842407 23.50223999 -1.45842407 23.50223999 -1.79858398 25.16235352 C-4.66915947 38.73026916 -8.32235438 52.30879213 -14 65 C-15.2455356 61.26339319 -14.52976865 60.25933581 -13.0625 56.6875 C-11.4723188 52.57045552 -10.65701854 49.45875903 -11 45 C-10.67 44.34 -10.34 43.68 -10 43 C-9.95977609 40.6670134 -9.95679753 38.33293334 -10 36 C-9.01 36 -8.02 36 -7 36 C-7 31.71 -7 27.42 -7 23 C-6.34 23 -5.68 23 -5 23 C-5.01160156 22.28972656 -5.02320313 21.57945312 -5.03515625 20.84765625 C-5.04869141 19.46900391 -5.04869141 19.46900391 -5.0625 18.0625 C-5.07410156 17.14597656 -5.08570313 16.22945312 -5.09765625 15.28515625 C-5 13 -5 13 -4 12 C-3.855625 10.845 -3.71125 9.69 -3.5625 8.5 C-3.376875 7.345 -3.19125 6.19 -3 5 C-2.34 4.67 -1.68 4.34 -1 4 C-0.34786708 1.97536745 -0.34786708 1.97536745 0 0 Z " fill="#15BCF6" transform="translate(746,531)"/>
<path d="M0 0 C3 1 3 1 4.625 3.8125 C7.03335535 9.39550558 7.01655299 11.18758256 5 17 C4.64284857 20.83937792 4.78775181 21.68162771 7 25 C6.34 25 5.68 25 5 25 C4.67 26.65 4.34 28.3 4 30 C4.99 30.33 5.98 30.66 7 31 C6.01 31.33 5.02 31.66 4 32 C4.20625 32.598125 4.4125 33.19625 4.625 33.8125 C5 36 5 36 3 39 C2.54860541 41.0492094 2.54860541 41.0492094 2.375 43.1875 C2.25125 44.445625 2.1275 45.70375 2 47 C1.67 47 1.34 47 1 47 C0.67 31.49 0.34 15.98 0 0 Z " fill="#0ABDFD" transform="translate(721,474)"/>
<path d="M0 0 C0.99241699 -0.00475342 1.98483398 -0.00950684 3.00732422 -0.0144043 C7.78347364 -0.00342558 12.30485221 0.1256949 17 1.125 C17 1.455 17 1.785 17 2.125 C15.02 2.455 13.04 2.785 11 3.125 C11 3.785 11 4.445 11 5.125 C7.2500163 5.15405924 3.50006163 5.17181874 -0.25 5.1875 C-1.84521484 5.20006836 -1.84521484 5.20006836 -3.47265625 5.21289062 C-4.49746094 5.21611328 -5.52226562 5.21933594 -6.578125 5.22265625 C-7.99206543 5.23051147 -7.99206543 5.23051147 -9.43457031 5.23852539 C-11.79390795 5.13411999 -13.73453769 4.74345468 -16 4.125 C-26.33579451 3.64426537 -36.69126682 4.42610284 -47 5.125 C-47 4.795 -47 4.465 -47 4.125 C-31.27644747 1.7324812 -15.92406035 0.06337811 0 0 Z " fill="#18A5E6" transform="translate(517,277.875)"/>
<path d="M0 0 C4.04745539 4.04745539 4.17175573 10.20716356 4.375 15.6875 C4.13743259 26.76932118 0.44196634 36.7503784 -7 45 C-9.87016769 47.54110388 -12.83815798 49.83474764 -16 52 C-16.99 51.34 -17.98 50.68 -19 50 C-18.01 50 -17.02 50 -16 50 C-16 49.34 -16 48.68 -16 48 C-15.01 48 -14.02 48 -13 48 C-13 47.34 -13 46.68 -13 46 C-11.1875 43.875 -11.1875 43.875 -9 42 C-8.01 42 -7.02 42 -6 42 C-5.855625 41.05125 -5.71125 40.1025 -5.5625 39.125 C-5 36 -5 36 -4 34 C-3.64386903 32.33805547 -3.30791692 30.671549 -3 29 C-1.68 28.67 -0.36 28.34 1 28 C1.0292067 24.45835085 1.04686814 20.91673303 1.0625 17.375 C1.07087891 16.37597656 1.07925781 15.37695312 1.08789062 14.34765625 C1.1041087 9.44979725 1.04318537 4.81343801 0 0 Z " fill="#2DC8EB" transform="translate(723,286)"/>
<path d="M0 0 C0.99 0.495 0.99 0.495 2 1 C2.76676463 3.62976307 3.4164951 6.20386314 4 8.875 C4.17225098 9.64497314 4.34450195 10.41494629 4.52197266 11.20825195 C4.86465342 12.75549281 5.20276542 14.30375315 5.53613281 15.85302734 C5.93368315 17.69305768 6.35154306 19.52867967 6.7734375 21.36328125 C7.87306089 26.52579885 8.40541547 30.05553488 6 35 C5.67 35 5.34 35 5 35 C5 32.03 5 29.06 5 26 C4.34 25.67 3.68 25.34 3 25 C3 24.34 3 23.68 3 23 C2.34 23 1.68 23 1 23 C0.13190561 17.79826905 -0.12515348 12.83021184 -0.0625 7.5625 C-0.05798828 6.83095703 -0.05347656 6.09941406 -0.04882812 5.34570312 C-0.03718148 3.56376581 -0.01925191 1.78187137 0 0 Z " fill="#12C2FC" transform="translate(736,438)"/>
<path d="M0 0 C0.33 0 0.66 0 1 0 C2.52331994 12.83941095 3.2286751 27.1956308 1 40 C0.01 40.495 0.01 40.495 -1 41 C-2.125 33.375 -2.125 33.375 -1 30 C-1.66 30 -2.32 30 -3 30 C-3 29.01 -3 28.02 -3 27 C-2.34 27 -1.68 27 -1 27 C-1.52268466 24.23723823 -2.10869587 21.6739124 -3 19 C-2.01 17.515 -2.01 17.515 -1 16 C-1.2920755 14.65702539 -1.63252792 13.32433121 -2 12 C-1.94090711 10.10096944 -1.8118025 8.20324426 -1.625 6.3125 C-1.53476562 5.33925781 -1.44453125 4.36601562 -1.3515625 3.36328125 C-1 1 -1 1 0 0 Z " fill="#09BDFD" transform="translate(746,488)"/>
<path d="M0 0 C-0.33 1.32 -0.66 2.64 -1 4 C-2.65 4.33 -4.3 4.66 -6 5 C-6 5.66 -6 6.32 -6 7 C-12.93 8.485 -12.93 8.485 -20 10 C-20.33 11.65 -20.66 13.3 -21 15 C-21.61875 15.144375 -22.2375 15.28875 -22.875 15.4375 C-25.03258322 15.93152225 -25.03258322 15.93152225 -27 17 C-27 17.99 -27 18.98 -27 20 C-27.99 19.67 -28.98 19.34 -30 19 C-32.63804589 19.39397335 -32.63804589 19.39397335 -35 20 C-28.04704573 12.63954658 -11.01903851 0 0 0 Z " fill="#10B7F1" transform="translate(476,409)"/>
<path d="M0 0 C3.07823634 1.4276888 5.650201 3.17497302 8.375 5.1875 C12.06933923 7.70972043 12.06933923 7.70972043 16.5625 7.875 C17.366875 7.58625 18.17125 7.2975 19 7 C19.33 7.66 19.66 8.32 20 9 C22.32716 9.37400786 24.66117862 9.70764733 27 10 C27.33 10.33 27.66 10.66 28 11 C32.6747323 11.18171329 32.6747323 11.18171329 37.25 10.375 C37.8275 10.25125 38.405 10.1275 39 10 C39.99 10.66 40.98 11.32 42 12 C30.92193286 14.96558877 20.20038337 14.58196875 10 9 C1.68721461 3.37442922 1.68721461 3.37442922 0 0 Z " fill="#16B3F0" transform="translate(657,329)"/>
<path d="M0 0 C2.65975927 0.0216534 5.21128581 0.15809559 7.85546875 0.3828125 C14.62382501 0.86145954 21.32846709 1.07444749 28.11328125 0.9921875 C28.95172577 0.984151 29.79017029 0.9761145 30.65402222 0.96783447 C34.08589848 0.93222667 37.51743915 0.88898848 40.94897461 0.82861328 C43.50378302 0.78635365 46.05822 0.76290818 48.61328125 0.7421875 C49.38408524 0.72356659 50.15488922 0.70494568 50.9490509 0.6857605 C55.49014391 0.66404444 58.40236389 1.16032795 62 4 C62.495 4.99 62.495 4.99 63 6 C60.0625 5.625 60.0625 5.625 57 5 C56.505 4.01 56.505 4.01 56 3 C54.79577393 3.00523682 53.59154785 3.01047363 52.35083008 3.01586914 C47.8238196 3.03415877 43.2968123 3.04551836 38.76977539 3.05493164 C36.82152759 3.05991766 34.87328345 3.06670888 32.92504883 3.07543945 C23.03556217 3.11860281 13.22371645 3.14892615 3.36987305 2.21655273 C0.89869889 1.95450088 0.89869889 1.95450088 -2 2 C-1.34 1.34 -0.68 0.68 0 0 Z " fill="#198BD6" transform="translate(476,726)"/>
<path d="M0 0 C0.99 0.66 1.98 1.32 3 2 C2.04882866 3.1725131 1.08882991 4.33787015 0.125 5.5 C-0.67550781 6.47453125 -0.67550781 6.47453125 -1.4921875 7.46875 C-1.98976563 7.9740625 -2.48734375 8.479375 -3 9 C-3.66 9 -4.32 9 -5 9 C-5 9.66 -5 10.32 -5 11 C-5.84884766 11.25523437 -5.84884766 11.25523437 -6.71484375 11.515625 C-7.81505859 11.87914062 -7.81505859 11.87914062 -8.9375 12.25 C-9.66839844 12.48203125 -10.39929688 12.7140625 -11.15234375 12.953125 C-13.21357434 13.8333752 -13.21357434 13.8333752 -13.56640625 16.046875 C-13.70949219 16.69140625 -13.85257813 17.3359375 -14 18 C-14.99 18.33 -15.98 18.66 -17 19 C-17.66 17.68 -18.32 16.36 -19 15 C-14.5445458 11.40716194 -10.01084587 7.92391276 -5.46484375 4.44726562 C-2.63203527 2.34128176 -2.63203527 2.34128176 0 0 Z " fill="#0A9AE7" transform="translate(638,676)"/>
<path d="M0 0 C6.04519982 3.06387973 10.86390043 7.49953056 15.57421875 12.3046875 C15.24421875 12.9646875 14.91421875 13.6246875 14.57421875 14.3046875 C13.58421875 13.6446875 12.59421875 12.9846875 11.57421875 12.3046875 C11.07921875 13.7896875 11.07921875 13.7896875 10.57421875 15.3046875 C10.28546875 14.3353125 9.99671875 13.3659375 9.69921875 12.3671875 C8.93207193 9.19804547 8.93207193 9.19804547 6.57421875 8.3046875 C5.57421875 7.3046875 5.57421875 7.3046875 4.01171875 5.4296875 C0.83117352 2.65690448 -2.43130887 1.52955501 -6.42578125 0.3046875 C-7.29976562 0.03398437 -7.29976562 0.03398437 -8.19140625 -0.2421875 C-11.49285608 -0.91171229 -14.82006682 -1.06433558 -18.17578125 -1.2578125 C-18.87316406 -1.30099609 -19.57054687 -1.34417969 -20.2890625 -1.38867188 C-22.00110047 -1.49420846 -23.71341686 -1.5952116 -25.42578125 -1.6953125 C-18.14926382 -6.21902695 -7.43047127 -2.97218851 0 0 Z " fill="#2CBDE6" transform="translate(702.42578125,262.6953125)"/>
<path d="M0 0 C2 2 2 2 2.22705078 5.71533203 C2.22673351 7.31286052 2.21539982 8.91041027 2.1953125 10.5078125 C2.1924826 11.34843231 2.18965271 12.18905212 2.18673706 13.05514526 C2.1755243 15.74524046 2.15041803 18.4350051 2.125 21.125 C2.1149716 22.94660978 2.10584551 24.76822477 2.09765625 26.58984375 C2.07558142 31.06002358 2.04104434 35.52995571 2 40 C1.67 40 1.34 40 1 40 C0.66013419 35.8755115 0.32931542 31.75034322 0 27.625 C-0.09539062 26.46871094 -0.19078125 25.31242188 -0.2890625 24.12109375 C-1.72008816 6.02884075 -1.72008816 6.02884075 0 0 Z " fill="#16B3FA" transform="translate(298,498)"/>
<path d="M0 0 C0.33 0 0.66 0 1 0 C1.10064005 6.28371307 0.75941669 12.32809949 0 18.5625 C-0.14308594 19.78936523 -0.14308594 19.78936523 -0.2890625 21.04101562 C-0.52144509 23.02788675 -0.76005516 25.01402794 -1 27 C-1.66 27 -2.32 27 -3 27 C-3.12117187 27.80824219 -3.24234375 28.61648438 -3.3671875 29.44921875 C-3.53476562 30.51785156 -3.70234375 31.58648438 -3.875 32.6875 C-4.03742187 33.74324219 -4.19984375 34.79898438 -4.3671875 35.88671875 C-4.95893069 38.79794914 -5.8031806 41.28955607 -7 44 C-8.04407669 40.77877569 -7.92259652 38.6979806 -7.109375 35.4296875 C-6.89563232 34.54104004 -6.68188965 33.65239258 -6.46166992 32.73681641 C-6.22681885 31.79241699 -5.99196777 30.84801758 -5.75 29.875 C-3.38188358 19.969272 -1.52858533 10.06629364 0 0 Z " fill="#28C0EB" transform="translate(721,523)"/>
<path d="M0 0 C9.05293337 -0.13534286 17.97859571 0.24258075 27 1 C27 1.99 27 2.98 27 4 C21.4100402 6.7949799 15.87790053 6.66580177 10 5 C9.01 4.67 8.02 4.34 7 4 C9.49064888 3.31292445 11.37886292 3 14 3 C11.29816945 1.64908472 8.88191794 1.66141942 5.875 1.4375 C4.23144531 1.31181641 4.23144531 1.31181641 2.5546875 1.18359375 C1.71164062 1.12300781 0.86859375 1.06242187 0 1 C0 0.67 0 0.34 0 0 Z " fill="#13A1EA" transform="translate(544,304)"/>
<path d="M0 0 C3.09087451 2.99428468 4.30256623 5.13762425 4.375 9.375 C4.19476497 13.51347361 3.33146882 17.08881035 2 21 C-1.2411006 17.7588994 -0.98264749 14.54660406 -1.125 10.0625 C-1.08592209 6.63015659 -0.67428368 3.37141841 0 0 Z " fill="#10A2E8" transform="translate(645,288)"/>
<path d="M0 0 C1.76953125 1.5234375 1.76953125 1.5234375 3 3 C2.484375 2.835 1.96875 2.67 1.4375 2.5 C-2.87709151 1.61495559 -6.82126148 1.60708716 -11 3 C-11.33 3.99 -11.66 4.98 -12 6 C-12.99 6 -13.98 6 -15 6 C-15 6.66 -15 7.32 -15 8 C-14.34 8.33 -13.68 8.66 -13 9 C-13.99 9.66 -14.98 10.32 -16 11 C-16.36297936 12.97747122 -16.36297936 12.97747122 -16.1875 15.125 C-16.125625 16.40375 -16.06375 17.6825 -16 19 C-18.45952726 16.54047274 -18.75003794 14.50189265 -19.08984375 11.09765625 C-18.9350074 7.48256404 -17.37387641 5.61735091 -15 3 C-10.43910334 -0.18202093 -5.45202885 -1.05925132 0 0 Z " fill="#148AD6" transform="translate(328,631)"/>
<path d="M0 0 C0.99 0.33 1.98 0.66 3 1 C2.67 16.18 2.34 31.36 2 47 C1.67 47 1.34 47 1 47 C0.67 31.49 0.34 15.98 0 0 Z " fill="#32DDFA" transform="translate(721,474)"/>
<path d="M0 0 C-3.21311658 1.79050802 -6.28321702 2.64367829 -9.8671875 3.4375 C-11.00027344 3.69273437 -12.13335937 3.94796875 -13.30078125 4.2109375 C-14.48027344 4.47132813 -15.65976562 4.73171875 -16.875 5 C-19.20634354 5.51807634 -21.53709531 6.03882434 -23.8671875 6.5625 C-24.89956543 6.79066406 -25.93194336 7.01882813 -26.99560547 7.25390625 C-30.06551204 7.96952381 -30.06551204 7.96952381 -33.23486328 9.11328125 C-36.08320711 10.0266827 -37.25884982 10.05428853 -40 9 C-39.34 9 -38.68 9 -38 9 C-38 8.34 -38 7.68 -38 7 C-33.7155316 5.99323981 -29.42884576 4.99671057 -25.13989258 4.00927734 C-23.6835247 3.67250942 -22.22777969 3.33303524 -20.77270508 2.99072266 C-18.6716968 2.49696052 -16.56858307 2.01322578 -14.46484375 1.53125 C-13.202771 1.23798828 -11.94069824 0.94472656 -10.64038086 0.64257812 C-7.0124122 0.00219093 -3.67545871 -0.11595813 0 0 Z " fill="#20AAE8" transform="translate(491,307)"/>
<path d="M0 0 C2.42520546 2.42520546 2.68564441 3.62067741 3 7 C2.03406278 10.12072025 0.82336069 12.26495897 -1 15 C-1.45770675 17.74341518 -1.83091338 20.42742471 -2.125 23.1875 C-2.21136719 23.93708984 -2.29773438 24.68667969 -2.38671875 25.45898438 C-2.59838382 27.30517412 -2.80015464 29.15249344 -3 31 C-3.33 31 -3.66 31 -4 31 C-4.69301031 20.10433786 -2.64099862 10.50504363 0 0 Z " fill="#19BDEF" transform="translate(405,481)"/>
<path d="M0 0 C2.64 0.66 5.28 1.32 8 2 C3.2347969 6.9240432 -1.88657333 11.44259642 -7 16 C-7 13 -7 13 -6 11 C-6.66 11 -7.32 11 -8 11 C-7.67 10.01 -7.34 9.02 -7 8 C-5.88625 7.87625 -4.7725 7.7525 -3.625 7.625 C0.03103677 7.3534187 0.03103677 7.3534187 2 5 C1.34 4.34 0.68 3.68 0 3 C0 2.01 0 1.02 0 0 Z " fill="#15AFF4" transform="translate(376,352)"/>
<path d="M0 0 C7.40612687 -0.52278543 14.22484337 0.22468831 21.4375 1.8125 C22.20626465 1.97782227 22.9750293 2.14314453 23.76708984 2.31347656 C28.00460132 3.29928975 31.37266352 4.48321982 35 7 C34.34 7.33 33.68 7.66 33 8 C32.401875 7.690625 31.80375 7.38125 31.1875 7.0625 C28.60339765 5.80736457 26.8395553 5.76976579 24 6 C23.67 6.33 23.34 6.66 23 7 C21.33382885 7.04063832 19.66611905 7.042721 18 7 C18 6.34 18 5.68 18 5 C18.99 4.67 19.98 4.34 21 4 C14.01812817 2.44005901 7.13393752 1.51537952 0 1 C0 0.67 0 0.34 0 0 Z " fill="#1FAEEC" transform="translate(538,280)"/>
<path d="M0 0 C0 3 0 3 -1.42578125 4.578125 C-2.04839844 5.12984375 -2.67101562 5.6815625 -3.3125 6.25 C-5.84784104 8.64336195 -7.41680376 10.45263033 -8.5625 13.75 C-10 17 -10 17 -13 18.9375 C-16 20 -16 20 -19 20 C-18.57589844 19.5875 -18.15179688 19.175 -17.71484375 18.75 C-13.83769559 14.93250028 -10.19610714 10.98797759 -6.64453125 6.8671875 C-4.52869105 4.46487962 -2.2975339 2.22791166 0 0 Z " fill="#1AABEA" transform="translate(347,346)"/>
<path d="M0 0 C3.12510733 2.8125966 4.8137345 4.95791014 6 9 C5.983374 11.82919184 5.87566104 14.50760291 5.625 17.3125 C5.56828125 18.05306641 5.5115625 18.79363281 5.453125 19.55664062 C5.31258589 21.37193743 5.15772905 23.18611597 5 25 C4.34 25 3.68 25 3 25 C1.92216464 12.2007051 1.92216464 12.2007051 2.0625 8 C1.99714386 4.86290551 1.3600717 2.80514788 0 0 Z " fill="#1AC2F7" transform="translate(718,277)"/>
<path d="M0 0 C0.33 0 0.66 0 1 0 C1.26389831 7.21810751 0.54619197 13.86681797 -0.875 20.9375 C-1.04902344 21.86884766 -1.22304688 22.80019531 -1.40234375 23.75976562 C-2.7368463 30.60526945 -2.7368463 30.60526945 -5 34 C-4.39027323 27.90273231 -3.50780953 21.92214396 -2.40234375 15.89453125 C-1.57046795 10.30153962 -1.57046795 10.30153962 -3 5 C-2.34 4.67 -1.68 4.34 -1 4 C-0.34786708 1.97536745 -0.34786708 1.97536745 0 0 Z " fill="#2DC3E9" transform="translate(746,531)"/>
<path d="M0 0 C0 0.66 0 1.32 0 2 C-0.66 2 -1.32 2 -2 2 C-2.226875 2.5775 -2.45375 3.155 -2.6875 3.75 C-4 6 -4 6 -6.5 7.75 C-9.99249069 10.89324162 -10.16332677 13.43632784 -11 18 C-11.33 18 -11.66 18 -12 18 C-12.68218589 11.58745264 -10.90456698 7.13535439 -7 2 C-4.36485296 0.46793777 -2.98952295 0 0 0 Z " fill="#0598EB" transform="translate(615,696)"/>
<path d="M0 0 C0 8.59090909 0 8.59090909 -2.375 11.9375 C-4 13 -4 13 -7 13 C-9.18777466 14.9375006 -9.18777466 14.9375006 -11 17 C-9.52869627 12.6426774 -7.16919385 9.28065866 -4.375 5.6875 C-3.95476563 5.13771484 -3.53453125 4.58792969 -3.1015625 4.02148438 C-2.07279961 2.67707832 -1.0370991 1.33798587 0 0 Z " fill="#19ADED" transform="translate(684,626)"/>
<path d="M0 0 C2.97 0.495 2.97 0.495 6 1 C1.335213 5.34307755 -4.21573668 7.52826576 -10 10 C-10 9.34 -10 8.68 -10 8 C-9.38125 7.95875 -8.7625 7.9175 -8.125 7.875 C-7.42375 7.58625 -6.7225 7.2975 -6 7 C-4.6954344 4.00384054 -4.6954344 4.00384054 -4 1 C-3.01 1.33 -2.02 1.66 -1 2 C-0.67 1.34 -0.34 0.68 0 0 Z " fill="#12C3F5" transform="translate(566,608)"/>
<path d="M0 0 C1.41377341 2.63904371 2.37240135 5.07120629 3 8 C4.65 8 6.3 8 8 8 C8 8.66 8 9.32 8 10 C7.01 10.495 7.01 10.495 6 11 C9.63 11.33 13.26 11.66 17 12 C13.24952518 14.50031654 11.44143734 14.53603554 7 14 C3.820082 11.4560656 1.33643507 8.8878111 0 5 C-0.125 2.25 -0.125 2.25 0 0 Z " fill="#22ADED" transform="translate(275,555)"/>
<path d="M0 0 C0.33 1.65 0.66 3.3 1 5 C0.34 4.67 -0.32 4.34 -1 4 C-3.09821215 4.39938767 -3.09821215 4.39938767 -5 5 C-4.773125 5.763125 -4.54625 6.52625 -4.3125 7.3125 C-4.209375 8.199375 -4.10625 9.08625 -4 10 C-5.4375 11.8125 -5.4375 11.8125 -7 13 C-8.125 11.25 -8.125 11.25 -9 9 C-7.88813091 5.17022868 -4.19443567 0 0 0 Z " fill="#0AA5F4" transform="translate(655,277)"/>
<path d="M0 0 C0.33 0.66 0.66 1.32 1 2 C0.0390625 3.8046875 0.0390625 3.8046875 -1.375 5.875 C-3.21931349 8.58480138 -4.37689044 10.76852482 -5 14 C-6.65 13.67 -8.3 13.34 -10 13 C-10 12.34 -10 11.68 -10 11 C-9.34 10.67 -8.68 10.34 -8 10 C-7.02410986 8.24339775 -6.04919638 6.48621667 -5.0859375 4.72265625 C-3.73079786 2.57295631 -2.16084149 1.31193948 0 0 Z " fill="#069CED" transform="translate(660,658)"/>
<path d="M0 0 C-0.0625 1.8125 -0.0625 1.8125 -1 4 C-4.5625 5.75 -4.5625 5.75 -8 7 C-8.33 5.68 -8.66 4.36 -9 3 C-8.34 3 -7.68 3 -7 3 C-7.33 2.01 -7.66 1.02 -8 0 C-4.71023192 -1.09658936 -3.28696233 -0.79953138 0 0 Z " fill="#0A9CED" transform="translate(649,704)"/>
<path d="M0 0 C0 3.59857954 -0.95830515 5.09451118 -3 8 C-3.66 8 -4.32 8 -5 8 C-5 8.99 -5 9.98 -5 11 C-6.98 11.66 -8.96 12.32 -11 13 C-11.33 12.34 -11.66 11.68 -12 11 C-11.46890625 10.54109375 -10.9378125 10.0821875 -10.390625 9.609375 C-6.81675301 6.50506283 -3.28145941 3.41818688 0 0 Z " fill="#14A7EF" transform="translate(655,661)"/>
<path d="M0 0 C0.96516243 3.00272755 1.22393475 5.04215769 0 8 C-0.99 8.33 -1.98 8.66 -3 9 C-4.68749704 11.54672255 -4.68749704 11.54672255 -6.1875 14.5625 C-6.71730469 15.57441406 -7.24710937 16.58632813 -7.79296875 17.62890625 C-8.19128906 18.41136719 -8.58960938 19.19382812 -9 20 C-9.33 19.34 -9.66 18.68 -10 18 C-9.30322266 16.22827148 -9.30322266 16.22827148 -8.1640625 14.12109375 C-7.75929688 13.36505859 -7.35453125 12.60902344 -6.9375 11.83007812 C-6.504375 11.04052734 -6.07125 10.25097656 -5.625 9.4375 C-5.19960938 8.64408203 -4.77421875 7.85066406 -4.3359375 7.03320312 C-1.17328096 1.17328096 -1.17328096 1.17328096 0 0 Z " fill="#20AAE8" transform="translate(303,402)"/>
<path d="M0 0 C0 3 0 3 -1.5625 4.8125 C-3.34059865 7.02050629 -3.34059865 7.02050629 -2.6875 10.25 C-2.460625 11.1575 -2.23375 12.065 -2 13 C-5 14 -5 14 -8 13 C-8 13.66 -8 14.32 -8 15 C-8.66 14.67 -9.32 14.34 -10 14 C-8.52208672 11.85329364 -7.0427346 9.70760477 -5.5625 7.5625 C-5.14162109 6.95083984 -4.72074219 6.33917969 -4.28710938 5.70898438 C-1.11328125 1.11328125 -1.11328125 1.11328125 0 0 Z " fill="#1AAAEB" transform="translate(319,378)"/>
<path d="M0 0 C1.2065625 0.0309375 1.2065625 0.0309375 2.4375 0.0625 C-0.3928482 2.8928482 -3.87168898 4.07730357 -7.5 5.625 C-8.22896484 5.94146484 -8.95792969 6.25792969 -9.70898438 6.58398438 C-12.64437449 7.85123345 -15.52665971 9.05055324 -18.5625 10.0625 C-18.5625 9.4025 -18.5625 8.7425 -18.5625 8.0625 C-17.92441406 7.72476562 -17.28632813 7.38703125 -16.62890625 7.0390625 C-15.80261719 6.59304688 -14.97632813 6.14703125 -14.125 5.6875 C-13.30128906 5.24664062 -12.47757812 4.80578125 -11.62890625 4.3515625 C-9.42783422 3.22831441 -9.42783422 3.22831441 -8.5625 1.0625 C-7.3559375 1.0934375 -7.3559375 1.0934375 -6.125 1.125 C-3.0866539 1.050894 -3.0383461 0.074106 0 0 Z " fill="#1CAFEE" transform="translate(440.5625,319.9375)"/>
<path d="M0 0 C1.65 0 3.3 0 5 0 C4 2 4 2 1.6875 3.125 C-3.54903094 4.36756666 -8.64355504 4.15601296 -14 4 C-14 3.67 -14 3.34 -14 3 C-12.35 2.67 -10.7 2.34 -9 2 C-9 1.67 -9 1.34 -9 1 C-2.25 0.875 -2.25 0.875 0 2 C0 1.34 0 0.68 0 0 Z " fill="#0F86D6" transform="translate(530,752)"/>
<path d="M0 0 C1.1700097 3.91736581 0.69584017 6.97959015 0 11 C-1.32 11.33 -2.64 11.66 -4 12 C-5 9 -5 9 -4.00390625 6.73828125 C-3.52824219 5.93777344 -3.05257813 5.13726562 -2.5625 4.3125 C-2.08941406 3.50425781 -1.61632812 2.69601562 -1.12890625 1.86328125 C-0.75636719 1.24839844 -0.38382812 0.63351562 0 0 Z " fill="#0FB8F4" transform="translate(415,459)"/>
<path d="M0 0 C5.32697239 1.45281065 8.36402802 5.08111378 12 9 C11.67 9.66 11.34 10.32 11 11 C10.01 10.34 9.02 9.68 8 9 C7.67 9.99 7.34 10.98 7 12 C6.71125 11.030625 6.4225 10.06125 6.125 9.0625 C5.35785318 5.89335797 5.35785318 5.89335797 3 5 C1.55802132 3.55802132 0.88213756 1.82308429 0 0 Z " fill="#23C8F6" transform="translate(706,266)"/>
<path d="M0 0 C4.38889325 0.66498383 7.9811485 2.18757677 12 4 C12 4.99 12 5.98 12 7 C10.68 7 9.36 7 8 7 C8 6.34 8 5.68 8 5 C7.01 5 6.02 5 5 5 C3.4375 3.625 3.4375 3.625 2 2 C1.34 1.34 0.68 0.68 0 0 Z M6 7 C6.66 7 7.32 7 8 7 C8 7.66 8 8.32 8 9 C7.34 9 6.68 9 6 9 C6 8.34 6 7.68 6 7 Z " fill="#0B81D0" transform="translate(421,710)"/>
<path d="M0 0 C2.375 2.0625 2.375 2.0625 4 4 C3.29875 3.690625 2.5975 3.38125 1.875 3.0625 C-1.08936657 1.96697322 -3.87698108 1.43577008 -7 1 C-7 1.99 -7 2.98 -7 4 C-8.98 4.66 -10.96 5.32 -13 6 C-11.97431136 3.29591177 -11.02736589 2.02204475 -8.75 0.1875 C-5.26746252 -1.316323 -3.59380604 -1.14695938 0 0 Z " fill="#30D0EE" transform="translate(730,427)"/>
<path d="M0 0 C0.99 0.495 0.99 0.495 2 1 C2.33 1.99 2.66 2.98 3 4 C3.66 4 4.32 4 5 4 C5.25 6.3125 5.25 6.3125 5 9 C3 10.8125 3 10.8125 1 12 C0 11 0 11 -0.09765625 8.49609375 C-0.08605469 7.48675781 -0.07445312 6.47742188 -0.0625 5.4375 C-0.05347656 4.42558594 -0.04445313 3.41367187 -0.03515625 2.37109375 C-0.02355469 1.58863281 -0.01195312 0.80617188 0 0 Z " fill="#13B6F3" transform="translate(743,524)"/>
<path d="M0 0 C0.33 0 0.66 0 1 0 C1 5.28 1 10.56 1 16 C0.01 14.68 -0.98 13.36 -2 12 C-2.66 11.67 -3.32 11.34 -4 11 C-3.6875 9.0625 -3.6875 9.0625 -3 7 C-2.01 6.67 -1.02 6.34 0 6 C0 4.02 0 2.04 0 0 Z " fill="#16C3FC" transform="translate(747,499)"/>
<path d="M0 0 C0.33 0 0.66 0 1 0 C2.47075246 4.41225737 3.36884358 7.48281619 2 12 C-0.125 10.5 -0.125 10.5 -2 8 C-1.74623625 5.10929988 -0.92790671 2.78372014 0 0 Z " fill="#17A3EB" transform="translate(278,461)"/>
<path d="M0 0 C3.375 4.5 3.375 4.5 3 9 C2.34 8.67 1.68 8.34 1 8 C0.67 9.32 0.34 10.64 0 12 C-0.66 12 -1.32 12 -2 12 C-1.34 8.04 -0.68 4.08 0 0 Z " fill="#07B3FC" transform="translate(717,553)"/>
<path d="M0 0 C2.31 0.33 4.62 0.66 7 1 C3.66530188 3.22313208 1.93420267 3.42214978 -2 3.75 C-3.5778125 3.89695312 -3.5778125 3.89695312 -5.1875 4.046875 C-8 4 -8 4 -11 2 C-5.555 1.505 -5.555 1.505 0 1 C0 0.67 0 0.34 0 0 Z " fill="#26BDEA" transform="translate(692,339)"/>
<path d="M0 0 C1.98 0.99 1.98 0.99 4 2 C4.33 2.99 4.66 3.98 5 5 C5.99 5 6.98 5 8 5 C8 5.99 8 6.98 8 8 C7.01 8.495 7.01 8.495 6 9 C5.67 9.99 5.34 10.98 5 12 C3.35 8.04 1.7 4.08 0 0 Z " fill="#18BFF3" transform="translate(407,555)"/>
<path d="M0 0 C0.66 0.66 1.32 1.32 2 2 C1.625 5.625 1.625 5.625 1 9 C0.01 9.33 -0.98 9.66 -2 10 C-2.33 10.66 -2.66 11.32 -3 12 C-2.68950274 10.56206608 -2.3765224 9.1246682 -2.0625 7.6875 C-1.88847656 6.88699219 -1.71445312 6.08648438 -1.53515625 5.26171875 C-1 3 -1 3 0 0 Z " fill="#1BB8F1" transform="translate(712,567)"/>
<path d="M0 0 C1.98 0.495 1.98 0.495 4 1 C2.25 7.75 2.25 7.75 0 10 C-1.125 3.375 -1.125 3.375 0 0 Z " fill="#15C2F3" transform="translate(716,432)"/>
<path d="M0 0 C4.67461851 -0.32613618 7.16674383 0.29417212 11 3 C10.67 3.66 10.34 4.32 10 5 C8.51793505 4.745504 7.03931385 4.47088238 5.5625 4.1875 C4.73878906 4.03667969 3.91507813 3.88585937 3.06640625 3.73046875 C2.38449219 3.48941406 1.70257812 3.24835938 1 3 C0.67 2.01 0.34 1.02 0 0 Z " fill="#13C5FA" transform="translate(723,428)"/>
<path d="M0 0 C3.3125 0.625 3.3125 0.625 7 2 C8.9375 5.125 8.9375 5.125 10 8 C4.98886765 6.5682479 3.05530451 4.01554307 0 0 Z " fill="#06A9F9" transform="translate(657,327)"/>
<path d="M0 0 C0.66 0.33 1.32 0.66 2 1 C1.38385645 2.81552978 0.75681772 4.6273653 0.125 6.4375 C-0.39707031 7.95150391 -0.39707031 7.95150391 -0.9296875 9.49609375 C-2 12 -2 12 -4 13 C-4.125 8.25 -4.125 8.25 -3 6 C-2.855625 5.154375 -2.71125 4.30875 -2.5625 3.4375 C-2.376875 2.633125 -2.19125 1.82875 -2 1 C-1.34 0.67 -0.68 0.34 0 0 Z " fill="#17C8FC" transform="translate(722,314)"/>
<path d="M0 0 C2.31 0 4.62 0 7 0 C7.33 0.66 7.66 1.32 8 2 C4.93753253 3.78409802 2.77920727 4.22880021 -0.75 4.125 C-1.54921875 4.10695313 -2.3484375 4.08890625 -3.171875 4.0703125 C-3.77515625 4.04710937 -4.3784375 4.02390625 -5 4 C-5 3.67 -5 3.34 -5 3 C-3.02 2.67 -1.04 2.34 1 2 C0.67 1.34 0.34 0.68 0 0 Z " fill="#0397EC" transform="translate(616,720)"/>
<path d="M0 0 C3 2 3 2 3.6875 5.125 C3.790625 6.07375 3.89375 7.0225 4 8 C1.69 6.35 -0.62 4.7 -3 3 C-2.01 2.01 -1.02 1.02 0 0 Z " fill="#0EBDF3" transform="translate(444,600)"/>
<path d="M0 0 C1.7074998 1.28062485 3.37373596 2.61767557 5 4 C5 4.66 5 5.32 5 6 C3.35 6.66 1.7 7.32 0 8 C-0.98120464 4.94736336 -0.98120464 3.05263664 0 0 Z " fill="#0A85D3" transform="translate(337,641)"/>
<path d="M0 0 C1 2 1 2 1 6 C0.67 6.66 0.34 7.32 0 8 C-0.66 8 -1.32 8 -2 8 C-2.33 9.32 -2.66 10.64 -3 12 C-3.66 11.67 -4.32 11.34 -5 11 C-4.35731563 9.35293447 -3.71076198 7.70737825 -3.0625 6.0625 C-2.70285156 5.14597656 -2.34320312 4.22945312 -1.97265625 3.28515625 C-1 1 -1 1 0 0 Z " fill="#1EB8EE" transform="translate(708,580)"/>
<path d="M0 0 C0.99 0.495 0.99 0.495 2 1 C2 1.66 2 2.32 2 3 C2.66 3 3.32 3 4 3 C4.33 2.34 4.66 1.68 5 1 C5.66 2.65 6.32 4.3 7 6 C6.34 6 5.68 6 5 6 C4.67 6.66 4.34 7.32 4 8 C0 2.25 0 2.25 0 0 Z " fill="#14BDF3" transform="translate(417,574)"/>
<path d="M0 0 C2.64 0 5.28 0 8 0 C5.64722731 2.72426311 3.37503669 3.8141763 0 5 C0 3.35 0 1.7 0 0 Z " fill="#17ACF0" transform="translate(400,337)"/>
<path d="M0 0 C0.66 0 1.32 0 2 0 C2 0.66 2 1.32 2 2 C2.66 2.33 3.32 2.66 4 3 C3.34 4.65 2.68 6.3 2 8 C0.4375 6.8125 0.4375 6.8125 -1 5 C-0.6875 2.3125 -0.6875 2.3125 0 0 Z " fill="#07A5F7" transform="translate(650,310)"/>
<path d="M0 0 C0.33 0 0.66 0 1 0 C1.05416188 1.60379341 1.09286638 3.20811406 1.125 4.8125 C1.14820313 5.70582031 1.17140625 6.59914063 1.1953125 7.51953125 C1 10 1 10 -1 13 C-1.144375 12.05125 -1.28875 11.1025 -1.4375 10.125 C-1.82935399 7.1065506 -1.82935399 7.1065506 -3 5 C-2.34 4.67 -1.68 4.34 -1 4 C-0.34786708 1.97536745 -0.34786708 1.97536745 0 0 Z " fill="#30C8F4" transform="translate(746,531)"/>
<path d="M0 0 C0.99 0.33 1.98 0.66 3 1 C2.34 4.63 1.68 8.26 1 12 C0.67 12 0.34 12 0 12 C0 8.04 0 4.08 0 0 Z " fill="#2CBFEA" transform="translate(721,474)"/>
<path d="M0 0 C1.75 1.5625 1.75 1.5625 3 3 C1.741875 2.87625 0.48375 2.7525 -0.8125 2.625 C-1.87404297 2.52058594 -1.87404297 2.52058594 -2.95703125 2.4140625 C-5 2 -5 2 -8 0 C-4.95904675 -0.97744926 -3.00367313 -1.16271218 0 0 Z " fill="#1080CE" transform="translate(447,748)"/>
<path d="M0 0 C0.33 0 0.66 0 1 0 C1.33 2.64 1.66 5.28 2 8 C0.68 7.67 -0.64 7.34 -2 7 C-2 5.35 -2 3.7 -2 2 C-1.34 2 -0.68 2 0 2 C0 1.34 0 0.68 0 0 Z " fill="#0596E9" transform="translate(607,713)"/>
<path d="M0 0 C0.66 0.33 1.32 0.66 2 1 C1.505 1.45375 1.01 1.9075 0.5 2.375 C-1.22609337 3.87635519 -1.22609337 3.87635519 -1 6 C-2.98 6.33 -4.96 6.66 -7 7 C-5.66667905 3.00003714 -3.5042173 2.16217663 0 0 Z " fill="#15A3EC" transform="translate(631,682)"/>
<path d="M0 0 C1.485 0.99 1.485 0.99 3 2 C2.34 4.97 1.68 7.94 1 11 C0.67 11 0.34 11 0 11 C-0.84098656 6.98195309 -1.05404945 3.98196457 0 0 Z " fill="#11B9FA" transform="translate(725,480)"/>
<path d="M0 0 C0.66 0 1.32 0 2 0 C3.42944945 2.35438733 4.08661261 3.48032433 3.625 6.25 C3.41875 6.8275 3.2125 7.405 3 8 C2.34 7.67 1.68 7.34 1 7 C1 6.01 1 5.02 1 4 C0.34 4 -0.32 4 -1 4 C-0.67 2.68 -0.34 1.36 0 0 Z " fill="#05B8FB" transform="translate(610,460)"/>
<path d="M0 0 C0.66 0 1.32 0 2 0 C1.38461538 6.52307692 1.38461538 6.52307692 -0.5625 8.9375 C-1.036875 9.288125 -1.51125 9.63875 -2 10 C-2.33 8.68 -2.66 7.36 -3 6 C-2.34 5.67 -1.68 5.34 -1 5 C-0.34444881 2.47266765 -0.34444881 2.47266765 0 0 Z " fill="#0C9DEC" transform="translate(285,446)"/>
<path d="M0 0 C0.33 0.66 0.66 1.32 1 2 C0.22265625 3.9453125 0.22265625 3.9453125 -0.9375 6.125 C-1.31777344 6.84945313 -1.69804687 7.57390625 -2.08984375 8.3203125 C-2.39019531 8.87460937 -2.69054687 9.42890625 -3 10 C-4.06546953 6.8035914 -4.07427838 4.34252724 -4 1 C-2.68 0.67 -1.36 0.34 0 0 Z " fill="#19ABED" transform="translate(326,418)"/>
<path d="M0 0 C1.125 1.5625 1.125 1.5625 2 4 C1.125 7.75 1.125 7.75 0 11 C-0.66 10.34 -1.32 9.68 -2 9 C-1.45652174 2.91304348 -1.45652174 2.91304348 0 0 Z " fill="#1BABF1" transform="translate(647,298)"/>
<path d="M0 0 C-3.465 2.97 -3.465 2.97 -7 6 C-6.75 3.625 -6.75 3.625 -6 1 C-2.69333333 -1.34666667 -2.69333333 -1.34666667 0 0 Z " fill="#17C8F3" transform="translate(592,594)"/>
<path d="M0 0 C0.66 0.99 1.32 1.98 2 3 C-0.35953094 5.35953094 -1.77895617 5.49141413 -5 6 C-4.67 5.01 -4.34 4.02 -4 3 C-3.34 3 -2.68 3 -2 3 C-2 2.34 -2 1.68 -2 1 C-1.34 0.67 -0.68 0.34 0 0 Z " fill="#0E9AE4" transform="translate(656,697)"/>
<path d="M0 0 C3.26460973 1.80412643 4.88929795 2.83394693 7 6 C4.69 5.34 2.38 4.68 0 4 C0 2.68 0 1.36 0 0 Z " fill="#0F85D1" transform="translate(368,675)"/>
<path d="M0 0 C-0.99 1.485 -0.99 1.485 -2 3 C-2.66 3 -3.32 3 -4 3 C-4.33 3.66 -4.66 4.32 -5 5 C-5.99 4.34 -6.98 3.68 -8 3 C-5.53387212 -0.1151089 -3.89156016 -0.31553191 0 0 Z " fill="#0EA3E9" transform="translate(673,647)"/>
<path d="M0 0 C0.66 0.33 1.32 0.66 2 1 C0.02 3.97 0.02 3.97 -2 7 C-3.32 6.34 -4.64 5.68 -6 5 C-5.195625 4.54625 -4.39125 4.0925 -3.5625 3.625 C-0.91143428 2.25274335 -0.91143428 2.25274335 0 0 Z " fill="#12C5F1" transform="translate(606,573)"/>
<path d="M0 0 C0.66 0.33 1.32 0.66 2 1 C-1.465 3.97 -1.465 3.97 -5 7 C-5.33 6.01 -5.66 5.02 -6 4 C-3.94766315 1.7522025 -2.99332739 0.9977758 0 0 Z " fill="#17A7E5" transform="translate(366,368)"/>
<path d="M0 0 C0.99 0.66 1.98 1.32 3 2 C2.34 2 1.68 2 1 2 C1 2.66 1 3.32 1 4 C-0.65 4.66 -2.3 5.32 -4 6 C-4 5.34 -4 4.68 -4 4 C-3.34 4 -2.68 4 -2 4 C-2.33 3.01 -2.66 2.02 -3 1 C-2.01 0.67 -1.02 0.34 0 0 Z " fill="#0B94E5" transform="translate(644,703)"/>
<path d="M0 0 C3.59391114 1.33488128 6.75490696 2.96022723 10 5 C7.3333581 6.33332095 5.83319697 5.67102033 3 5 C3 4.01 3 3.02 3 2 C2.01 1.67 1.02 1.34 0 1 C0 0.67 0 0.34 0 0 Z " fill="#138AD7" transform="translate(392,694)"/>
<path d="M0 0 C0.33 0.66 0.66 1.32 1 2 C0.00390625 3.9453125 0.00390625 3.9453125 -1.4375 6.125 C-1.91058594 6.84945312 -2.38367188 7.57390625 -2.87109375 8.3203125 C-3.24363281 8.87460937 -3.61617187 9.42890625 -4 10 C-5.33332095 7.3333581 -4.67102033 5.83319697 -4 3 C-3.01 3 -2.02 3 -1 3 C-0.67 2.01 -0.34 1.02 0 0 Z " fill="#20B6ED" transform="translate(713,633)"/>
<path d="M0 0 C0.99 0.495 0.99 0.495 2 1 C2.99 0.67 3.98 0.34 5 0 C5.33 0.99 5.66 1.98 6 3 C4.125 4.0625 4.125 4.0625 2 5 C1.34 4.67 0.68 4.34 0 4 C0 2.68 0 1.36 0 0 Z " fill="#0F9BE8" transform="translate(632,712)"/>
<path d="M0 0 C2.97 0.495 2.97 0.495 6 1 C4.68 2.32 3.36 3.64 2 5 C1.01 4.01 0.02 3.02 -1 2 C-0.67 1.34 -0.34 0.68 0 0 Z " fill="#16AAF2" transform="translate(351,378)"/>
</svg>
